<mxfile host="65bd71144e" pages="2">
    <diagram name="UML diagram" id="rj-hS-ORLMR2Q2L8CIdF">
        <mxGraphModel dx="1242" dy="888" grid="1" gridSize="10" guides="1" tooltips="1" connect="1" arrows="1" fold="1" page="1" pageScale="1" pageWidth="3300" pageHeight="2339" math="0" shadow="0">
            <root>
                <mxCell id="0"/>
                <mxCell id="1" parent="0"/>
                <mxCell id="8s4xJe4lUsjPvLq0o51X-12" style="edgeStyle=orthogonalEdgeStyle;rounded=0;orthogonalLoop=1;jettySize=auto;html=1;exitX=0.25;exitY=1;exitDx=0;exitDy=0;startArrow=classic;startFill=1;endArrow=none;endFill=0;" parent="1" source="8s4xJe4lUsjPvLq0o51X-1" target="8s4xJe4lUsjPvLq0o51X-2" edge="1">
                    <mxGeometry relative="1" as="geometry">
                        <mxPoint x="550" y="650" as="targetPoint"/>
                    </mxGeometry>
                </mxCell>
                <mxCell id="8s4xJe4lUsjPvLq0o51X-13" style="edgeStyle=orthogonalEdgeStyle;rounded=0;orthogonalLoop=1;jettySize=auto;html=1;exitX=0.75;exitY=1;exitDx=0;exitDy=0;endArrow=none;endFill=0;startArrow=classic;startFill=1;" parent="1" source="8s4xJe4lUsjPvLq0o51X-1" edge="1">
                    <mxGeometry relative="1" as="geometry">
                        <mxPoint x="1190" y="660" as="targetPoint"/>
                    </mxGeometry>
                </mxCell>
                <mxCell id="8s4xJe4lUsjPvLq0o51X-14" style="edgeStyle=orthogonalEdgeStyle;rounded=0;orthogonalLoop=1;jettySize=auto;html=1;exitX=0.5;exitY=1;exitDx=0;exitDy=0;entryX=0.5;entryY=0;entryDx=0;entryDy=0;startArrow=classic;startFill=1;endArrow=none;endFill=0;" parent="1" source="8s4xJe4lUsjPvLq0o51X-1" target="8s4xJe4lUsjPvLq0o51X-3" edge="1">
                    <mxGeometry relative="1" as="geometry"/>
                </mxCell>
                <mxCell id="8s4xJe4lUsjPvLq0o51X-1" value="&lt;span style=&quot;font-size: 20px;&quot;&gt;CONTAINER / VIEWS&lt;br&gt;js / ts / jsx / tsx&lt;br&gt;&lt;/span&gt;" style="rounded=0;whiteSpace=wrap;html=1;" parent="1" vertex="1">
                    <mxGeometry x="670" y="420" width="400" height="190" as="geometry"/>
                </mxCell>
                <mxCell id="8s4xJe4lUsjPvLq0o51X-2" value="COMPONENT 1&lt;br&gt;jsx / tsx" style="ellipse;whiteSpace=wrap;html=1;aspect=fixed;" parent="1" vertex="1">
                    <mxGeometry x="470" y="660" width="160" height="160" as="geometry"/>
                </mxCell>
                <mxCell id="8s4xJe4lUsjPvLq0o51X-3" value="COMPONENT 2&lt;br&gt;jsx / tsx" style="ellipse;whiteSpace=wrap;html=1;aspect=fixed;" parent="1" vertex="1">
                    <mxGeometry x="790" y="660" width="160" height="160" as="geometry"/>
                </mxCell>
                <mxCell id="8s4xJe4lUsjPvLq0o51X-4" value="COMPONENT 3&lt;br&gt;jsx / tsx" style="ellipse;whiteSpace=wrap;html=1;aspect=fixed;" parent="1" vertex="1">
                    <mxGeometry x="1110" y="660" width="155" height="155" as="geometry"/>
                </mxCell>
                <mxCell id="8s4xJe4lUsjPvLq0o51X-17" value="" style="edgeStyle=orthogonalEdgeStyle;rounded=0;orthogonalLoop=1;jettySize=auto;html=1;dashed=1;" parent="1" source="8s4xJe4lUsjPvLq0o51X-16" target="8s4xJe4lUsjPvLq0o51X-1" edge="1">
                    <mxGeometry relative="1" as="geometry"/>
                </mxCell>
                <mxCell id="10" style="edgeStyle=none;html=1;exitX=0;exitY=0.5;exitDx=0;exitDy=0;entryX=0.75;entryY=0;entryDx=0;entryDy=0;dashed=1;" parent="1" source="8s4xJe4lUsjPvLq0o51X-16" target="8s4xJe4lUsjPvLq0o51X-26" edge="1">
                    <mxGeometry relative="1" as="geometry">
                        <Array as="points">
                            <mxPoint x="403" y="360"/>
                        </Array>
                    </mxGeometry>
                </mxCell>
                <mxCell id="8s4xJe4lUsjPvLq0o51X-16" value="HOC&lt;br&gt;jsx / tsx" style="rounded=1;whiteSpace=wrap;html=1;strokeWidth=2;fillWeight=4;hachureGap=8;hachureAngle=45;fillColor=#1ba1e2;sketch=1;fontColor=#ffffff;strokeColor=#006EAF;" parent="1" vertex="1">
                    <mxGeometry x="825" y="330" width="90" height="60" as="geometry"/>
                </mxCell>
                <mxCell id="8s4xJe4lUsjPvLq0o51X-22" style="edgeStyle=orthogonalEdgeStyle;rounded=0;orthogonalLoop=1;jettySize=auto;html=1;exitX=0.5;exitY=1;exitDx=0;exitDy=0;entryX=1;entryY=0.5;entryDx=0;entryDy=0;endArrow=none;endFill=0;startArrow=classic;startFill=1;" parent="1" source="8s4xJe4lUsjPvLq0o51X-18" target="8s4xJe4lUsjPvLq0o51X-1" edge="1">
                    <mxGeometry relative="1" as="geometry"/>
                </mxCell>
                <mxCell id="8s4xJe4lUsjPvLq0o51X-24" value="" style="edgeStyle=orthogonalEdgeStyle;rounded=0;orthogonalLoop=1;jettySize=auto;html=1;dashed=1;" parent="1" source="8s4xJe4lUsjPvLq0o51X-18" target="8s4xJe4lUsjPvLq0o51X-23" edge="1">
                    <mxGeometry relative="1" as="geometry"/>
                </mxCell>
                <mxCell id="8s4xJe4lUsjPvLq0o51X-18" value="SERVICES&lt;br&gt;js / ts" style="shape=hexagon;perimeter=hexagonPerimeter2;whiteSpace=wrap;html=1;fixedSize=1;fillColor=#d80073;fontColor=#ffffff;strokeColor=#A50040;" parent="1" vertex="1">
                    <mxGeometry x="1300" y="120" width="120" height="80" as="geometry"/>
                </mxCell>
                <mxCell id="8s4xJe4lUsjPvLq0o51X-23" value="ADAPTERS&lt;br&gt;js / ts" style="shape=parallelogram;perimeter=parallelogramPerimeter;whiteSpace=wrap;html=1;fixedSize=1;fillColor=#d80073;strokeColor=#A50040;fontColor=#ffffff;" parent="1" vertex="1">
                    <mxGeometry x="1480" y="127.5" width="130" height="65" as="geometry"/>
                </mxCell>
                <mxCell id="8s4xJe4lUsjPvLq0o51X-25" value="&lt;u&gt;&lt;b&gt;Skicom Component Based Architecture&lt;/b&gt;&lt;/u&gt;" style="text;html=1;align=center;verticalAlign=middle;resizable=0;points=[];autosize=1;strokeColor=none;fillColor=none;fontSize=40;" parent="1" vertex="1">
                    <mxGeometry x="860" y="20" width="780" height="60" as="geometry"/>
                </mxCell>
                <mxCell id="8s4xJe4lUsjPvLq0o51X-26" value="MORE CONTAINERS" style="rounded=0;whiteSpace=wrap;html=1;dashed=1;" parent="1" vertex="1">
                    <mxGeometry x="275" y="485" width="170" height="60" as="geometry"/>
                </mxCell>
                <mxCell id="13" style="edgeStyle=none;html=1;exitX=1;exitY=0.5;exitDx=0;exitDy=0;exitPerimeter=0;startArrow=classic;startFill=1;endArrow=none;endFill=0;" edge="1" parent="1" source="8s4xJe4lUsjPvLq0o51X-28" target="8s4xJe4lUsjPvLq0o51X-18">
                    <mxGeometry relative="1" as="geometry"/>
                </mxCell>
                <mxCell id="8s4xJe4lUsjPvLq0o51X-28" value="STORE&lt;br&gt;js / ts" style="shape=cylinder3;whiteSpace=wrap;html=1;boundedLbl=1;backgroundOutline=1;size=15;fillColor=#6a00ff;fontColor=#ffffff;strokeColor=#3700CC;" parent="1" vertex="1">
                    <mxGeometry x="310" y="120" width="100" height="80" as="geometry"/>
                </mxCell>
            </root>
        </mxGraphModel>
    </diagram>
    <diagram id="kAYQFHFRnLZXhvBp8U6O" name="Flowchart">
        <mxGraphModel dx="1632" dy="964" grid="1" gridSize="10" guides="1" tooltips="1" connect="1" arrows="1" fold="1" page="1" pageScale="1" pageWidth="3300" pageHeight="2339" math="0" shadow="0">
            <root>
                <mxCell id="0"/>
                <mxCell id="1" parent="0"/>
            </root>
        </mxGraphModel>
    </diagram>
</mxfile>